<svg xmlns="http://www.w3.org/2000/svg" viewBox="0.3695340156555176 0.3203120231628418 43.603092193603516 97.67837524414062" fill="#f2473e" style="box-shadow: none; border-radius: 0px; opacity: 1;" preserveAspectRatio="xMidYMid meet" fill-opacity="1" role="img">
<path d="M42.0835 0.320312C43.6555 2.60631 45.9405 12.3853 40.8005 19.0973C40.8005 19.0973 37.1295 17.0793 30.0085 16.4213C30.0085 16.4213 29.3005 47.8263 28.6565 52.3823C23.5145 88.8113 29.6585 94.9533 29.6585 94.9533L29.7435 94.7883C29.7435 94.7883 26.2025 100.521 20.1415 96.6653L19.7995 82.5243C24.0855 37.9543 19.4685 34.6703 19.4685 34.6703L17.9305 16.1473C16.9925 16.1923 16.1245 16.2673 15.4135 16.3843L14.2315 9.52831L10.9995 8.00031L0.369534 10.5713C0.369534 10.5713 1.94253 4.01031 9.94553 2.69831L11.9075 1.74831C26.3365 3.32031 42.0835 0.320312 42.0835 0.320312Z" fill="" style="undefined" fill-opacity=""></path>
</svg>